<?xml version="1.0" standalone="no"?>
<!DOCTYPE svg PUBLIC "-//W3C//DTD SVG 20010904//EN"
 "http://www.w3.org/TR/2001/REC-SVG-20010904/DTD/svg10.dtd">
<svg version="1.0" xmlns="http://www.w3.org/2000/svg"
 width="700.000000pt" height="700.000000pt" viewBox="0 0 700.000000 700.000000"
 preserveAspectRatio="xMidYMid meet">
<metadata>
Created by potrace 1.14, written by Peter Selinger 2001-2017
</metadata>
<g transform="translate(0.000000,700.000000) scale(0.100000,-0.100000)"
fill="#000000" stroke="none">
<path d="M3225 6539 c-148 -17 -171 -20 -200 -25 -16 -2 -37 -7 -45 -9 -8 -3
-32 -7 -54 -11 -116 -18 -278 -63 -456 -126 -110 -39 -307 -126 -342 -150 -16
-11 -28 -17 -28 -14 0 17 -329 -194 -455 -291 -131 -102 -322 -281 -415 -389
-316 -366 -531 -759 -655 -1200 -27 -98 -29 -103 -50 -209 -45 -228 -59 -372
-59 -615 0 -345 42 -617 146 -940 92 -282 197 -498 374 -765 40 -60 81 -119
91 -130 10 -11 31 -38 48 -60 170 -229 524 -544 781 -697 31 -18 70 -41 86
-51 228 -136 605 -283 853 -333 11 -2 31 -6 45 -9 204 -43 369 -60 615 -60
234 0 326 7 520 40 228 39 425 94 650 185 92 37 308 144 380 188 28 17 63 38
78 47 25 14 132 88 206 142 171 125 361 307 541 519 134 157 308 437 409 657
74 160 180 477 206 612 18 98 37 205 41 240 3 22 7 54 9 70 23 163 23 528 -1
705 -75 559 -260 1024 -581 1458 -130 175 -248 305 -427 466 -300 271 -719
509 -1111 629 -98 31 -312 83 -380 93 -27 5 -52 9 -55 9 -3 1 -32 5 -65 9 -33
4 -71 10 -85 13 -42 9 -540 11 -615 2z m1131 -926 c28 -27 105 -98 170 -159
66 -61 131 -122 145 -135 15 -13 82 -76 150 -141 68 -64 138 -128 154 -144 50
-45 293 -274 379 -356 58 -54 77 -78 66 -82 -15 -5 -624 -190 -745 -226 -78
-23 -473 -144 -595 -181 -146 -46 -140 -46 -129 -2 5 21 12 47 14 58 17 74 44
195 51 220 1 6 11 47 22 92 l19 81 -41 11 c-102 25 -212 44 -341 58 -109 11
-375 5 -478 -12 -12 -2 -38 -6 -57 -10 -514 -84 -1010 -376 -1325 -779 -16
-21 -34 -44 -40 -50 -5 -6 -32 -44 -59 -84 -27 -39 -50 -72 -52 -72 -1 0 11
35 27 78 80 211 226 457 369 625 266 313 632 551 1025 668 54 16 112 32 129
35 16 3 32 7 35 9 4 2 27 6 51 10 25 3 59 8 75 11 181 31 526 26 705 -11 14
-3 39 -8 56 -11 l30 -6 42 179 c22 98 51 222 63 276 12 53 25 97 28 97 4 0 29
-21 57 -47z m996 -2674 c-117 -228 -226 -376 -411 -559 -206 -205 -407 -340
-675 -454 -154 -65 -365 -125 -501 -142 -22 -3 -46 -7 -53 -9 -16 -6 -209 -18
-277 -18 -60 -1 -256 13 -264 17 -3 2 -35 7 -70 10 -36 4 -67 9 -71 11 -4 2
-21 7 -38 10 -17 3 -71 16 -120 29 l-89 24 -14 -42 c-7 -22 -13 -43 -14 -46 0
-3 -34 -105 -74 -228 l-73 -223 -21 18 c-12 10 -31 29 -42 43 -21 26 -261 295
-329 370 -23 25 -77 85 -121 134 -44 50 -87 97 -95 106 -8 9 -49 54 -90 100
-81 91 -132 148 -250 279 -94 104 -97 109 -68 116 13 2 88 18 168 34 80 17
186 39 235 50 50 11 101 22 115 24 14 3 135 28 270 56 135 29 301 64 370 78
69 14 172 36 230 49 58 12 106 21 108 20 1 -2 -32 -106 -73 -232 -41 -126 -75
-234 -75 -239 0 -17 266 -93 385 -110 23 -3 52 -8 65 -10 47 -10 195 -19 295
-19 151 1 288 14 410 40 39 9 81 18 95 20 48 9 195 56 208 66 6 6 12 8 12 5 0
-7 111 38 215 88 75 36 276 156 301 179 6 6 22 18 35 26 98 64 333 294 413
404 35 48 27 20 -22 -75z"/>
</g>
</svg>
